<?xml version="1.0" standalone="yes"?>
<svg xmlns="http://www.w3.org/2000/svg" width="4060" height="2900">
<path style="fill:#ffffff; stroke:none;" d="M0 0L0 2900L4060 2900L4060 0L0 0z"/>
<path style="fill:#010101; stroke:none;" d="M1254 1187L1254 1232L1255 1232C1255.19 1209.07 1271.83 1189.89 1295 1188C1284.25 1183.49 1265.7 1187 1254 1187z"/>
<path style="fill:#f7f3f3; stroke:none;" d="M1359 1501C1345.19 1501 1316.87 1506.8 1309.46 1492C1306.04 1485.19 1308 1474.45 1308 1467L1254 1467C1254 1491.31 1248.32 1527.22 1270 1544.48C1284.73 1556.21 1304.29 1555 1322 1555C1356.56 1555 1404.47 1561.26 1411.56 1516C1415.2 1492.76 1409.34 1468.99 1402 1447C1385.84 1398.57 1355.4 1357.29 1332.75 1312C1321.86 1290.21 1308.07 1264.98 1308 1240C1320.97 1240 1348.91 1234.63 1356.58 1248.04C1360.9 1255.59 1359 1266.63 1359 1275L1413 1275C1413 1249.64 1418.47 1213.07 1395 1195.93C1380.83 1185.58 1362.57 1187 1346 1187C1312.02 1187 1262.3 1179.77 1255.3 1225C1251.67 1248.44 1257.27 1271.83 1264.67 1294C1280.95 1342.83 1311.42 1384.34 1334.25 1430C1344.97 1451.45 1358.49 1476.44 1359 1501z"/>
<path style="fill:#010101; stroke:none;" d="M1371 1187L1371 1188C1417 1190.01 1413 1242.3 1413 1275L1359 1275C1359 1266.32 1361.32 1253.67 1356.01 1246.19C1347.95 1234.83 1320.19 1240 1308 1240C1308.02 1270.02 1325.96 1301.44 1340.14 1327C1365.65 1372.99 1395.23 1417.35 1408.13 1469C1416.38 1502.06 1414.63 1553.05 1369 1554L1369 1555L1465 1555L1465 1439L1464.82 1381L1454.42 1342L1437.29 1279L1419 1212L1411.3 1188.03L1400 1187L1371 1187z"/>
<path style="fill:#f7f3f3; stroke:none;" d="M1412 1187L1451.15 1331L1464.68 1381L1465 1439L1465 1555L1518 1555L1518 1439L1518.3 1381L1536.58 1313L1571 1187L1517 1187C1509.04 1225.6 1494.21 1265.73 1491 1305L1490 1305L1466 1187L1412 1187z"/>
<path style="fill:#010101; stroke:none;" d="M1466 1187L1475.6 1236L1490 1305L1491 1305L1517 1187L1466 1187M1518 1555L1574 1555L1574 1187C1567.45 1189.15 1566.48 1201.96 1564.88 1208C1559.24 1229.38 1553.35 1250.7 1547.42 1272C1540.76 1295.96 1534.35 1320 1527.85 1344C1524.6 1355.99 1519.5 1368.63 1518.17 1381C1516.15 1399.9 1518 1419.98 1518 1439L1518 1555z"/>
<path style="fill:#f7f3f3; stroke:none;" d="M1574 1187L1574 1555L1698 1555L1698 1501L1628 1501L1628 1398L1698 1398L1698 1344L1628 1344L1628 1240L1698 1240L1698 1187L1574 1187z"/>
<path style="fill:#010101; stroke:none;" d="M1698 1187L1698 1240L1628 1240L1628 1344L1698 1344L1698 1398L1628 1398L1628 1501L1698 1501L1698 1555L1723 1555L1723 1187L1698 1187z"/>
<path style="fill:#f7f3f3; stroke:none;" d="M1723 1187L1723 1555L1818 1555C1835.2 1555 1854.37 1555.25 1867.91 1542.7C1887.33 1524.69 1882 1489.76 1882 1466L1882 1275C1882 1251.35 1887.14 1217.15 1867.96 1199.17C1854.26 1186.34 1835.46 1187 1818 1187L1723 1187z"/>
<path style="fill:#010101; stroke:none;" d="M1840 1187L1840 1188C1876.86 1189.61 1882 1225.88 1882 1255L1882 1488C1882 1517.87 1875.34 1553.23 1838 1554L1838 1555L1994 1555L2016.17 1323L2029 1187L1840 1187z"/>
<path style="fill:#f7f3f3; stroke:none;" d="M2029 1187L2018.17 1301L1994 1555L2048 1555L2052 1502L2095 1502L2099 1555L2153 1555L2146.83 1492L2134.83 1366L2122.83 1240L2118 1187L2029 1187z"/>
<path style="fill:#010101; stroke:none;" d="M2118 1187C2118.03 1225.7 2125.1 1265.48 2128.83 1304C2134.11 1358.61 2137.77 1413.53 2144.29 1468C2146.87 1489.6 2147.74 1511.43 2150.58 1533C2151.21 1537.79 2149.77 1550.76 2153.74 1553.97C2159.02 1558.24 2177.27 1555 2184 1555L2184 1240L2131 1240L2131 1187L2118 1187z"/>
<path style="fill:#f7f3f3; stroke:none;" d="M2131 1187L2131 1240L2184 1240L2184 1555L2237 1555L2237 1240L2290 1240L2290 1187L2131 1187z"/>
<path style="fill:#010101; stroke:none;" d="M2290 1187L2290 1240L2237 1240L2237 1555L2303 1555L2303 1187L2290 1187z"/>
<path style="fill:#f7f3f3; stroke:none;" d="M2303 1187L2303 1555L2357 1555L2357 1398L2408 1398L2408 1555L2462 1555L2462 1187L2408 1187L2408 1344L2357 1344L2357 1187L2303 1187z"/>
<path style="fill:#010101; stroke:none;" d="M2357 1187L2357 1344L2408 1344L2408 1187L2357 1187M2462 1187L2462 1555L2474 1555L2496.17 1323L2509 1187L2462 1187z"/>
<path style="fill:#f7f3f3; stroke:none;" d="M2509 1187L2498.17 1301L2474 1555L2528 1555L2532 1502L2575 1502L2579 1555L2633 1555L2626.83 1492L2614.83 1366L2602.83 1240L2598 1187L2509 1187z"/>
<path style="fill:#010101; stroke:none;" d="M2598 1187L2608.83 1304L2624.58 1470L2630.58 1533L2633.18 1553.4L2647 1555L2647 1187L2598 1187z"/>
<path style="fill:#f7f3f3; stroke:none;" d="M2647 1187L2647 1555L2701 1555L2701 1403L2702 1403L2714.33 1442L2738.67 1515L2748 1543L2752.7 1553.97L2767 1555L2806 1555C2791.1 1502.5 2769.06 1450.42 2758 1397C2763.47 1396.98 2768.71 1396.3 2774 1394.84C2816.47 1383.15 2806 1324.35 2806 1291L2806 1263C2806 1243.62 2808.18 1220.63 2796.21 1204C2785 1188.43 2765.49 1187 2748 1187L2647 1187z"/>
<path style="fill:#010101; stroke:none;" d="M2764 1187L2764 1188C2790.05 1189.14 2805 1211.7 2805 1236L2806 1236L2806 1187L2764 1187M1777 1240L1777 1501C1789.13 1501 1816.08 1506.09 1824.58 1495.9C1828.76 1490.88 1828 1484.08 1828 1478L1828 1439L1828 1299L1828 1264C1828 1258.02 1828.67 1251.35 1825.01 1246.19C1816.95 1234.83 1789.19 1240 1777 1240M2701 1240L2701 1344C2712.9 1344 2737.33 1348.62 2746.89 1340.58C2753.23 1335.25 2752 1326.4 2752 1319L2752 1266C2752 1258.92 2753.19 1250 2747.61 1244.53C2738.15 1235.28 2713.23 1240 2701 1240M1254 1248L1254 1467L1308 1467C1308 1474.69 1305.92 1485.98 1309.46 1493C1316.39 1506.78 1346.03 1501 1359 1501C1358.85 1483.39 1351.14 1465.9 1344.28 1450C1328.73 1413.97 1306.2 1381.76 1288.26 1347C1277.3 1325.78 1267.55 1303.93 1260.72 1281C1257.62 1270.6 1258.09 1257.73 1254 1248M2073 1256L2057 1449L2090 1449L2079.09 1322L2075.17 1276L2073 1256M2553 1256L2537 1449L2570 1449L2559.09 1322L2555.17 1276L2553 1256M2805 1349C2804.98 1376.36 2785.7 1396.77 2758 1397L2769.66 1437L2793.72 1516L2805 1554L2806 1554L2806 1410L2806 1369L2805 1349M2357 1398L2357 1555L2408 1555L2408 1398L2357 1398M2701 1403L2701 1555L2752 1555C2744.35 1521.92 2730.41 1489.22 2719.67 1457C2714.06 1440.17 2710.43 1417.99 2701 1403M2052 1502L2048 1555L2099 1555L2095 1502L2052 1502M2532 1502L2528 1555L2579 1555L2575 1502L2532 1502M1254 1510L1254 1555L1298 1555L1298 1554C1281.26 1553.65 1266.27 1544.32 1259.31 1529C1256.53 1522.88 1256.58 1515.97 1254 1510z"/>
</svg>
